<svg id="a5edeced-ba47-40a6-ae07-afdce0ba93a1" data-name="Layer 1" xmlns="http://www.w3.org/2000/svg" xmlns:xlink="http://www.w3.org/1999/xlink" viewBox="0 0 187 74"><defs><style>.f75b833f-b103-44e9-8119-c2933dc4e556{fill:#fff;}.a1d481a5-3f17-4529-a19e-0826f503f6d8,.a48228f3-14a4-4c53-a6dd-515c98356111,.b295a409-9978-485e-91c6-bc4dc3b44dd6,.bc3d46d8-8874-4025-9bb4-f7a390ffec2d,.f75b833f-b103-44e9-8119-c2933dc4e556{fill-rule:evenodd;}.b295a409-9978-485e-91c6-bc4dc3b44dd6{fill:#5ca4b6;}.a48228f3-14a4-4c53-a6dd-515c98356111{fill:#f3b01a;}.fe0ba5a6-db19-4275-b609-e7e1518d7baf{mask:url(#b90be9e6-fa70-48c0-b073-58170d9d5042);}.bc3d46d8-8874-4025-9bb4-f7a390ffec2d{fill:#ef5822;}.adf5ae8f-b9b0-45b6-9fbe-533b7aabe128{mask:url(#a39dc6ca-aa89-4163-991d-c37a28080653);}.a1d481a5-3f17-4529-a19e-0826f503f6d8{fill:#f38b81;}.b3a6ce96-3529-4d76-800e-cd29aab97c8f{mask:url(#b3ae2379-e915-4a81-9b2b-dc6b811a8344);}</style><mask id="b90be9e6-fa70-48c0-b073-58170d9d5042" x="0" y="39.06" width="34.94" height="34.94" maskUnits="userSpaceOnUse"><g id="f2e1fe77-3c11-4be8-b926-5dcb93cffa79" data-name="mask-2"><polygon id="eec7f2fe-841f-44a8-bebb-0aaef7bfbe05" data-name="path-1" class="f75b833f-b103-44e9-8119-c2933dc4e556" points="0 39.06 34.94 39.06 34.94 74 0 74 0 39.06"></polygon></g></mask><mask id="a39dc6ca-aa89-4163-991d-c37a28080653" x="0" y="0" width="187" height="74" maskUnits="userSpaceOnUse"><g id="ab50a8dd-7f8e-4f11-a9f8-f96cbba4ead8" data-name="mask-4"><polygon id="f80424d0-3aef-4537-9588-1ca6230bcb43" data-name="path-3" class="f75b833f-b103-44e9-8119-c2933dc4e556" points="0 73 187 73 187 0 0 0 0 73"></polygon></g></mask><mask id="b3ae2379-e915-4a81-9b2b-dc6b811a8344" x="0" y="0" width="187" height="73" maskUnits="userSpaceOnUse"><g id="ec12c4b1-fc80-4c24-bc83-cd247d013b32" data-name="mask-4"><polygon id="f1e81e98-451d-4678-8b31-774878959c07" data-name="path-3" class="f75b833f-b103-44e9-8119-c2933dc4e556" points="0 73 187 73 187 0 0 0 0 73"></polygon></g></mask></defs><title>Group 128</title><g id="a0b76e1c-4e66-405d-8d30-5e13188a6eae" data-name="Symbols"><g id="b195e67c-71aa-48a6-a134-78a3a6c72f09" data-name="Group-18"><path id="eb31ffd3-43c7-4376-91a0-e58013fd4a67" data-name="Fill-1" class="b295a409-9978-485e-91c6-bc4dc3b44dd6" d="M35,35V0A35,35,0,0,0,0,35H35Z"></path><path id="a537d697-4eb6-489b-8a51-4593fe73c311" data-name="Fill-3" class="a48228f3-14a4-4c53-a6dd-515c98356111" d="M39,35h0A35,35,0,0,0,74,0H39Z"></path><g id="b5148f21-2299-47f5-885f-02a66dfcd946" data-name="Group-7"><g class="fe0ba5a6-db19-4275-b609-e7e1518d7baf"><path id="a9f923d1-7eec-401f-acc0-825268fb94df" data-name="Fill-5" class="bc3d46d8-8874-4025-9bb4-f7a390ffec2d" d="M34.94,39.06H0A34.94,34.94,0,0,0,34.94,74Z"></path></g></g><g class="adf5ae8f-b9b0-45b6-9fbe-533b7aabe128"><polygon id="abcafcb2-436a-4027-ab34-4e364cfbdccc" data-name="Fill-8" class="a1d481a5-3f17-4529-a19e-0826f503f6d8" points="39 74 74 74 74 39 39 39 39 74"></polygon></g><g class="b3a6ce96-3529-4d76-800e-cd29aab97c8f"><path id="b4de994b-928f-427d-9106-e3b67718da70" data-name="Fill-10" class="f75b833f-b103-44e9-8119-c2933dc4e556" d="M113.31,31.39,113,28.1c-1.31,1.95-4.16,3.9-8.52,3.9C96.64,32,90,26.32,90,17S97,2,104.79,2c7.59,0,11.78,4.42,13.21,8.85l-5.38,1.91a7.71,7.71,0,0,0-7.83-5.52c-4.36,0-9.08,3-9.08,9.78,0,6.5,4.28,9.86,9.13,9.86,5.33,0,7.41-3.57,7.74-5.6h-9.13V16.41h14.43v15Z"></path></g><g class="b3a6ce96-3529-4d76-800e-cd29aab97c8f"><path id="ad9e8f50-dcc9-4d3c-b4ab-51225932fb46" data-name="Fill-11" class="f75b833f-b103-44e9-8119-c2933dc4e556" d="M135.6,19.25c-.08-2-1.4-3.9-4.54-3.9a4.34,4.34,0,0,0-4.53,3.9Zm5.11,6.47c-1,3.42-4.25,6.28-9.24,6.28A10.15,10.15,0,0,1,121,21.42,10,10,0,0,1,131,11c6.27,0,10,3.9,10,10.26,0,.76-.08,1.57-.08,1.65H126.4a4.9,4.9,0,0,0,5.12,4.5,4.47,4.47,0,0,0,4.61-3Z"></path></g><g class="b3a6ce96-3529-4d76-800e-cd29aab97c8f"><path id="bbfa2cb2-92cc-4efc-bec6-7166d8ed2212" data-name="Fill-12" class="f75b833f-b103-44e9-8119-c2933dc4e556" d="M158.59,21.5c0-3.74-2.44-5.63-5.09-5.63s-5.09,1.89-5.09,5.63,2.44,5.63,5.09,5.63,5.09-1.89,5.09-5.63m5.41,0a10.5,10.5,0,0,1-21,0,10.5,10.5,0,0,1,21,0"></path></g><g class="b3a6ce96-3529-4d76-800e-cd29aab97c8f"><path id="e8f10b1b-5d2c-49db-b91b-efdd7a21851a" data-name="Fill-13" class="f75b833f-b103-44e9-8119-c2933dc4e556" d="M181.37,20.07c0-2.29-1.14-4.08-3.85-4.08-2.45,0-3.89,1.87-3.89,4.24V32H168V11.54h5.46v2.54a7,7,0,0,1,6-3.08c5.16,0,7.53,3.62,7.53,8.11V32h-5.63V20.07"></path></g><g class="b3a6ce96-3529-4d76-800e-cd29aab97c8f"><polygon id="fd13a11d-1f8e-4658-bd90-d125bba836e0" data-name="Fill-14" class="f75b833f-b103-44e9-8119-c2933dc4e556" points="103.84 48.36 103.84 72 98.16 72 98.16 48.36 89 48.36 89 43 113 43 113 48.36 103.84 48.36"></polygon></g><g class="b3a6ce96-3529-4d76-800e-cd29aab97c8f"><path id="bdd47f4b-371f-4332-9634-8eeecfcb024a" data-name="Fill-15" class="f75b833f-b103-44e9-8119-c2933dc4e556" d="M115.68,72h5.68V52h-5.68Zm2.82-30a3.34,3.34,0,1,1-3.5,3.38A3.42,3.42,0,0,1,118.5,42Z"></path></g><g class="b3a6ce96-3529-4d76-800e-cd29aab97c8f"><polygon id="b3932254-96c3-4e18-be47-53b6fac1f671" data-name="Fill-16" class="f75b833f-b103-44e9-8119-c2933dc4e556" points="127 72 132 72 132 42 127 42 127 72"></polygon></g><g class="b3a6ce96-3529-4d76-800e-cd29aab97c8f"><path id="ee5236d5-4149-44a0-85b9-bf46803b4784" data-name="Fill-17" class="f75b833f-b103-44e9-8119-c2933dc4e556" d="M149.6,59.25c-.08-2-1.4-3.91-4.54-3.91a4.35,4.35,0,0,0-4.53,3.91Zm5.11,6.47c-1,3.42-4.25,6.28-9.24,6.28A10.15,10.15,0,0,1,135,61.42,10,10,0,0,1,145,51c6.27,0,10,3.9,10,10.26,0,.76-.08,1.57-.08,1.65H140.4a4.9,4.9,0,0,0,5.11,4.5,4.47,4.47,0,0,0,4.62-3Z"></path></g></g></g></svg>