<svg fill="currentColor" width="30px" height="33px" viewBox="0 0 30 33" version="1.1" xmlns="http://www.w3.org/2000/svg" xmlns:xlink="http://www.w3.org/1999/xlink">
    <g id="03-Our-Story" stroke="none" stroke-width="1" fill="none" fill-rule="evenodd">
        <g id="03-Our-Story-M" transform="translate(-28.000000, -3061.000000)" fill="#FF5600">
            <g id="Canada" transform="translate(27.000000, 3060.000000)">
                <g transform="translate(0.800000, 0.800000)" id="Fill-1">
                    <path d="M15.19936,0.2 L12.5794448,5.05969658 C12.2822276,5.58772522 11.7494893,5.53884311 11.216751,5.24402287 L9.32029491,4.26714443 L10.7339329,11.731341 C11.0311502,13.0949482 10.0772901,13.0949482 9.60650413,12.5053078 L6.29641001,8.81980024 L5.75906372,10.6915778 C5.69685545,10.9372613 5.42447029,11.1954199 5.01589255,11.1338081 L0.830018688,10.2587674 L1.92954338,14.2337487 C2.16480838,15.1182094 2.34836117,15.484316 1.69171836,15.717779 L0.2,16.4151129 L7.40540674,22.2359031 C7.69059196,22.4558726 7.83472057,22.8520213 7.73308814,23.2104902 L7.10255745,25.2688853 C9.58346404,24.9845035 11.8065775,24.5565304 14.2885081,24.2930253 C14.507901,24.2696026 14.8744946,24.6293444 14.8732146,24.8816473 L14.5442532,32.4222222 L15.7505303,32.4222222 L15.5608335,24.8979414 C15.5592975,24.6453838 15.892099,24.2696026 16.1112359,24.2930253 C18.5934225,24.5565304 20.816536,24.9845035 23.2974425,25.2688853 L22.6666559,23.2104902 C22.5652794,22.8520213 22.709152,22.4558726 22.9945933,22.2359031 L30.2,16.4151129 L28.7080256,15.717779 C28.0516388,15.484316 28.2351916,15.1182094 28.4704566,14.2337487 L29.5699813,10.2587674 L25.3841075,11.1338081 C24.9755297,11.1954199 24.7028885,10.9372613 24.6409363,10.6915778 L24.10359,8.81980024 L20.7934959,12.5053078 C20.3227099,13.0949482 19.3688498,13.0949482 19.6660671,11.731341 L21.0797051,4.26714443 L19.182993,5.24402287 C18.6502547,5.53884311 18.1177724,5.58772522 17.8202992,5.05969658"></path>
                </g>
            </g>
        </g>
    </g>
</svg>